<?xml version="1.0" encoding="UTF-8" standalone="no"?>
<!-- Created with Inkscape (http://www.inkscape.org/) -->

<svg
   xmlns:dc="http://purl.org/dc/elements/1.1/"
   xmlns:cc="http://creativecommons.org/ns#"
   xmlns:rdf="http://www.w3.org/1999/02/22-rdf-syntax-ns#"
   xmlns:svg="http://www.w3.org/2000/svg"
   xmlns="http://www.w3.org/2000/svg"
   xmlns:sodipodi="http://sodipodi.sourceforge.net/DTD/sodipodi-0.dtd"
   xmlns:inkscape="http://www.inkscape.org/namespaces/inkscape"
   inkscape:version="0.48.1 r9760"
   version="1.1"
   id="svg2"
   height="128"
   width="128"
   sodipodi:docname="fence.svg"
   inkscape:export-filename="/mnt/nfs_files/docs/dvanmosselbeen/GFX/blender/fgfs/sources_sceneries/belgium/_airports/ebgb/fence.png"
   inkscape:export-xdpi="90"
   inkscape:export-ydpi="90">
  <sodipodi:namedview
     id="base"
     pagecolor="#ffffff"
     bordercolor="#666666"
     borderopacity="1.0"
     inkscape:pageopacity="0.0"
     inkscape:pageshadow="2"
     inkscape:zoom="4"
     inkscape:cx="58.353941"
     inkscape:cy="26.79847"
     inkscape:document-units="px"
     inkscape:current-layer="layer2"
     showgrid="false"
     inkscape:window-width="1600"
     inkscape:window-height="851"
     inkscape:window-x="0"
     inkscape:window-y="0"
     inkscape:window-maximized="1" />
  <defs
     id="defs4">
    <inkscape:perspective
       id="perspective3013"
       inkscape:persp3d-origin="64 : 42.666667 : 1"
       inkscape:vp_z="128 : 64 : 1"
       inkscape:vp_y="0 : 1000 : 0"
       inkscape:vp_x="0 : 64 : 1"
       sodipodi:type="inkscape:persp3d" />
  </defs>
  <metadata
     id="metadata7">
    <rdf:RDF>
      <cc:Work
         rdf:about="">
        <dc:format>image/svg+xml</dc:format>
        <dc:type
           rdf:resource="http://purl.org/dc/dcmitype/StillImage" />
        <dc:title></dc:title>
      </cc:Work>
    </rdf:RDF>
  </metadata>
  <g
     transform="translate(0,-924.36218)"
     id="layer1"
     inkscape:groupmode="layer"
     inkscape:label="Layer 1">
    <path
       id="path2985"
       style="fill:none;fill-opacity:0.75000000;fill-rule:evenodd;stroke:#000000;stroke-linecap:butt;stroke-linejoin:miter;stroke-opacity:1.0000000;stroke-width:1pt"
       d="M 0,0 0,128 M 25,0 25,128 M 50,0 50,128 M 75,0 75,128 M 100,0 100,128 M 125,0 125,128 M 0,0 128,0 M 0,10 128,10 M 0,20 128,20 M 0,30 128,30 M 0,40 128,40 M 0,50 128,50 M 0,60 128,60 M 0,70 128,70 M 0,80 128,80 M 0,90 128,90 m -128,10 128,0 m -128,10 128,0 m -128,10 128,0" />
    <path
       id="path2997"
       style="fill:none;fill-opacity:0.75000000;fill-rule:evenodd;stroke:#000000;stroke-linecap:butt;stroke-linejoin:miter;stroke-opacity:1.0000000;stroke-width:1pt"
       d="M 1,2.6171874e-6 1,128 M 26,2.6171874e-6 26,128 M 51,2.6171874e-6 51,128 M 76,2.6171874e-6 76,128 M 101,2.6171874e-6 101,128 M 126,2.6171874e-6 126,128 M 1,2.6171874e-6 l 128,0 M 1,10.000003 l 128,0 m -128,10 128,0 m -128,10 128,0 m -128,10 128,0 m -128,10 128,0 m -128,10 128,0 m -128,10 128,0 m -128,10 128,0 m -128,10 128,0 M 1,100 l 128,0 m -128,10 128,0 m -128,10 128,0" />
    <path
       id="path2999"
       style="fill:none;fill-opacity:0.75000000;fill-rule:evenodd;stroke:#000000;stroke-linecap:butt;stroke-linejoin:miter;stroke-opacity:1.0000000;stroke-width:1pt"
       d="M 1,2.6171874e-6 1,128 M 26,2.6171874e-6 26,128 M 51,2.6171874e-6 51,128 M 76,2.6171874e-6 76,128 M 101,2.6171874e-6 101,128 M 126,2.6171874e-6 126,128 M 1,2.6171874e-6 l 128,0 M 1,10.000003 l 128,0 m -128,10 128,0 m -128,10 128,0 m -128,10 128,0 m -128,10 128,0 m -128,10 128,0 m -128,10 128,0 m -128,10 128,0 m -128,10 128,0 M 1,100 l 128,0 m -128,10 128,0 m -128,10 128,0" />
    <path
       id="path3001"
       style="fill:none;fill-opacity:0.75000000;fill-rule:evenodd;stroke:#000000;stroke-linecap:butt;stroke-linejoin:miter;stroke-opacity:1.0000000;stroke-width:1pt"
       d="M 1,2.6171874e-6 1,128 M 26,2.6171874e-6 26,128 M 51,2.6171874e-6 51,128 M 76,2.6171874e-6 76,128 M 101,2.6171874e-6 101,128 M 126,2.6171874e-6 126,128 M 1,2.6171874e-6 l 128,0 M 1,10.000003 l 128,0 m -128,10 128,0 m -128,10 128,0 m -128,10 128,0 m -128,10 128,0 m -128,10 128,0 m -128,10 128,0 m -128,10 128,0 m -128,10 128,0 M 1,100 l 128,0 m -128,10 128,0 m -128,10 128,0" />
    <path
       id="path3003"
       style="fill:none;fill-opacity:0.75000000;fill-rule:evenodd;stroke:#000000;stroke-linecap:butt;stroke-linejoin:miter;stroke-opacity:1.0000000;stroke-width:1pt"
       d="M 1,2.6171874e-6 1,128 M 26,2.6171874e-6 26,128 M 51,2.6171874e-6 51,128 M 76,2.6171874e-6 76,128 M 101,2.6171874e-6 101,128 M 126,2.6171874e-6 126,128 M 1,2.6171874e-6 l 128,0 M 1,10.000003 l 128,0 m -128,10 128,0 m -128,10 128,0 m -128,10 128,0 m -128,10 128,0 m -128,10 128,0 m -128,10 128,0 m -128,10 128,0 m -128,10 128,0 M 1,100 l 128,0 m -128,10 128,0 m -128,10 128,0" />
    <path
       id="path3005"
       style="fill:none;fill-opacity:0.75000000;fill-rule:evenodd;stroke:#000000;stroke-linecap:butt;stroke-linejoin:miter;stroke-opacity:1.0000000;stroke-width:1pt"
       d="M 1,2.6171874e-6 1,128 M 26,2.6171874e-6 26,128 M 51,2.6171874e-6 51,128 M 76,2.6171874e-6 76,128 M 101,2.6171874e-6 101,128 M 126,2.6171874e-6 126,128 M 1,2.6171874e-6 l 128,0 M 1,10.000003 l 128,0 m -128,10 128,0 m -128,10 128,0 m -128,10 128,0 m -128,10 128,0 m -128,10 128,0 m -128,10 128,0 m -128,10 128,0 m -128,10 128,0 M 1,100 l 128,0 m -128,10 128,0 m -128,10 128,0" />
    <path
       id="path3007"
       style="fill:none;fill-opacity:0.75000000;fill-rule:evenodd;stroke:#000000;stroke-linecap:butt;stroke-linejoin:miter;stroke-opacity:1.0000000;stroke-width:1pt"
       d="M 1,2.6171874e-6 1,128 M 26,2.6171874e-6 26,128 M 51,2.6171874e-6 51,128 M 76,2.6171874e-6 76,128 M 101,2.6171874e-6 101,128 M 126,2.6171874e-6 126,128 M 1,2.6171874e-6 l 128,0 M 1,10.000003 l 128,0 m -128,10 128,0 m -128,10 128,0 m -128,10 128,0 m -128,10 128,0 m -128,10 128,0 m -128,10 128,0 m -128,10 128,0 m -128,10 128,0 M 1,100 l 128,0 m -128,10 128,0 m -128,10 128,0" />
    <path
       id="path3009"
       style="fill:none;fill-opacity:0.75000000;fill-rule:evenodd;stroke:#000000;stroke-linecap:butt;stroke-linejoin:miter;stroke-opacity:1.0000000;stroke-width:1pt"
       d="M 1,2.6171874e-6 1,128 M 26,2.6171874e-6 26,128 M 51,2.6171874e-6 51,128 M 76,2.6171874e-6 76,128 M 101,2.6171874e-6 101,128 M 126,2.6171874e-6 126,128 M 1,2.6171874e-6 l 128,0 M 1,10.000003 l 128,0 m -128,10 128,0 m -128,10 128,0 m -128,10 128,0 m -128,10 128,0 m -128,10 128,0 m -128,10 128,0 m -128,10 128,0 m -128,10 128,0 M 1,100 l 128,0 m -128,10 128,0 m -128,10 128,0" />
    <path
       id="path3011"
       style="fill:none;fill-opacity:0.75000000;fill-rule:evenodd;stroke:#000000;stroke-linecap:butt;stroke-linejoin:miter;stroke-opacity:1.0000000;stroke-width:1pt"
       d="M 1,2.6171874e-6 1,128 M 26,2.6171874e-6 26,128 M 51,2.6171874e-6 51,128 M 76,2.6171874e-6 76,128 M 101,2.6171874e-6 101,128 M 126,2.6171874e-6 126,128 M 1,2.6171874e-6 l 128,0 M 1,10.000003 l 128,0 m -128,10 128,0 m -128,10 128,0 m -128,10 128,0 m -128,10 128,0 m -128,10 128,0 m -128,10 128,0 m -128,10 128,0 m -128,10 128,0 M 1,100 l 128,0 m -128,10 128,0 m -128,10 128,0" />
  </g>
  <path
     d="m 1.4142136,0 0,128 m 5,-128 0,128 M 11.414212,0 l 0,128 m 5,-128 0,128 m 5,-128 0,128 m 5,-128 0,128 m 5,-128 0,128 m 5,-128 0,128 m 5,-128 0,128 m 5,-128 0,128 m 5,-128 0,128 m 5,-128 0,128 m 5,-128 0,128 m 5,-128 0,128 m 5,-128 0,128 m 5,-128 0,128 m 5,-128 0,128 m 5,-128 0,128 m 5,-128 0,128 m 5,-128 0,128 M 101.4142,0 l 0,128 m 5,-128 0,128 m 5,-128 0,128 m 5,-128 0,128 m 5,-128 0,128 m 5,-128 0,128 M 1.4142136,0 129.4142,0 M 1.4142136,10 129.4142,10 M 1.4142136,20 129.4142,20 M 1.4142136,30 129.4142,30 M 1.4142136,40 129.4142,40 M 1.4142136,50 129.4142,50 M 1.4142136,60 129.4142,60 M 1.4142136,70 129.4142,70 M 1.4142136,80 129.4142,80 M 1.4142136,90 129.4142,90 M 1.4142136,100 129.4142,100 M 1.4142136,110 129.4142,110 M 1.4142136,120 129.4142,120"
     style="fill:none;stroke:#0b280b;stroke-width:1pt;stroke-linecap:butt;stroke-linejoin:miter;stroke-opacity:1"
     id="path6932"
     inkscape:connector-curvature="0" />
  <g
     inkscape:groupmode="layer"
     id="layer2"
     inkscape:label="Layer"
     style="display:inline">
    <rect
       style="fill:#0b280b;stroke:none"
       id="rect6935"
       width="3"
       height="130"
       x="0"
       y="-0.49999952" />
    <rect
       y="-0.49999952"
       x="125"
       height="130"
       width="3"
       id="rect6958"
       style="fill:#0b280b;stroke:none" />
  </g>
</svg>
