<?xml version="1.0" encoding="UTF-8" standalone="no"?>
<svg
   xmlns:dc="http://purl.org/dc/elements/1.1/"
   xmlns:cc="http://creativecommons.org/ns#"
   xmlns:rdf="http://www.w3.org/1999/02/22-rdf-syntax-ns#"
   xmlns:svg="http://www.w3.org/2000/svg"
   xmlns="http://www.w3.org/2000/svg"
   xmlns:xlink="http://www.w3.org/1999/xlink"
   xmlns:sodipodi="http://sodipodi.sourceforge.net/DTD/sodipodi-0.dtd"
   xmlns:inkscape="http://www.inkscape.org/namespaces/inkscape"
   width="1024"
   height="512"
   viewBox="0 0 1024 512"
   version="1.1"
   id="svg2"
   inkscape:version="0.92.4 (5da689c313, 2019-01-14)"
   sodipodi:docname="ebaw_building_ref_030.svg"
   inkscape:export-filename="/mnt/nfs_files/docs/dvanmosselbeen/GFX/blender/fgfs/sources_sceneries/belgium/_airports/ebaw/ebaw_building_ref_030.png"
   inkscape:export-xdpi="45"
   inkscape:export-ydpi="45">
  <metadata
     id="metadata80">
    <rdf:RDF>
      <cc:Work
         rdf:about="">
        <dc:format>image/svg+xml</dc:format>
        <dc:type
           rdf:resource="http://purl.org/dc/dcmitype/StillImage" />
        <dc:title />
      </cc:Work>
    </rdf:RDF>
  </metadata>
  <defs
     id="defs78">
    <linearGradient
       inkscape:collect="always"
       id="linearGradient3972">
      <stop
         style="stop-color:#b3b3b3;stop-opacity:1;"
         offset="0"
         id="stop3974" />
      <stop
         style="stop-color:#b3b3b3;stop-opacity:0;"
         offset="1"
         id="stop3976" />
    </linearGradient>
    <linearGradient
       inkscape:collect="always"
       xlink:href="#linearGradient3972"
       id="linearGradient3978"
       x1="720.43268"
       y1="178.89102"
       x2="724.43268"
       y2="178.89102"
       gradientUnits="userSpaceOnUse" />
    <linearGradient
       inkscape:collect="always"
       xlink:href="#linearGradient3972"
       id="linearGradient3986"
       gradientUnits="userSpaceOnUse"
       x1="720.43268"
       y1="178.89102"
       x2="724.43268"
       y2="178.89102"
       gradientTransform="translate(20,0)" />
    <linearGradient
       inkscape:collect="always"
       xlink:href="#linearGradient3972"
       id="linearGradient3990"
       gradientUnits="userSpaceOnUse"
       gradientTransform="translate(40,0)"
       x1="720.43268"
       y1="178.89102"
       x2="724.43268"
       y2="178.89102" />
    <linearGradient
       inkscape:collect="always"
       xlink:href="#linearGradient3972"
       id="linearGradient3994"
       gradientUnits="userSpaceOnUse"
       gradientTransform="translate(60,0)"
       x1="720.43268"
       y1="178.89102"
       x2="724.43268"
       y2="178.89102" />
    <linearGradient
       inkscape:collect="always"
       xlink:href="#linearGradient3972"
       id="linearGradient3998"
       gradientUnits="userSpaceOnUse"
       gradientTransform="translate(80,0)"
       x1="720.43268"
       y1="178.89102"
       x2="724.43268"
       y2="178.89102" />
    <linearGradient
       inkscape:collect="always"
       xlink:href="#linearGradient3972"
       id="linearGradient4002"
       gradientUnits="userSpaceOnUse"
       gradientTransform="translate(100,0)"
       x1="720.43268"
       y1="178.89102"
       x2="724.43268"
       y2="178.89102" />
    <linearGradient
       inkscape:collect="always"
       xlink:href="#linearGradient3972"
       id="linearGradient4006"
       gradientUnits="userSpaceOnUse"
       gradientTransform="translate(120,0)"
       x1="720.43268"
       y1="178.89102"
       x2="724.43268"
       y2="178.89102" />
    <linearGradient
       inkscape:collect="always"
       xlink:href="#linearGradient3972"
       id="linearGradient4010"
       gradientUnits="userSpaceOnUse"
       gradientTransform="translate(140,0)"
       x1="720.43268"
       y1="178.89102"
       x2="724.43268"
       y2="178.89102" />
    <linearGradient
       inkscape:collect="always"
       xlink:href="#linearGradient3972"
       id="linearGradient4014"
       gradientUnits="userSpaceOnUse"
       gradientTransform="translate(160,0)"
       x1="720.43268"
       y1="178.89102"
       x2="724.43268"
       y2="178.89102" />
    <linearGradient
       inkscape:collect="always"
       xlink:href="#linearGradient3972"
       id="linearGradient4018"
       gradientUnits="userSpaceOnUse"
       gradientTransform="translate(180,0)"
       x1="720.43268"
       y1="178.89102"
       x2="724.43268"
       y2="178.89102" />
    <linearGradient
       inkscape:collect="always"
       xlink:href="#linearGradient3972"
       id="linearGradient4022"
       gradientUnits="userSpaceOnUse"
       gradientTransform="translate(200,0)"
       x1="720.43268"
       y1="178.89102"
       x2="724.43268"
       y2="178.89102" />
    <linearGradient
       inkscape:collect="always"
       xlink:href="#linearGradient3972"
       id="linearGradient4026"
       gradientUnits="userSpaceOnUse"
       gradientTransform="translate(220,0)"
       x1="720.43268"
       y1="178.89102"
       x2="724.43268"
       y2="178.89102" />
    <linearGradient
       inkscape:collect="always"
       xlink:href="#linearGradient3972"
       id="linearGradient4030"
       gradientUnits="userSpaceOnUse"
       gradientTransform="translate(240,0)"
       x1="720.43268"
       y1="178.89102"
       x2="724.43268"
       y2="178.89102" />
    <linearGradient
       inkscape:collect="always"
       xlink:href="#linearGradient3972"
       id="linearGradient4034"
       gradientUnits="userSpaceOnUse"
       gradientTransform="translate(260,0)"
       x1="720.43268"
       y1="178.89102"
       x2="724.43268"
       y2="178.89102" />
    <linearGradient
       inkscape:collect="always"
       xlink:href="#linearGradient3972"
       id="linearGradient4038"
       gradientUnits="userSpaceOnUse"
       gradientTransform="translate(280,0)"
       x1="720.43268"
       y1="178.89102"
       x2="724.43268"
       y2="178.89102" />
  </defs>
  <sodipodi:namedview
     pagecolor="#ffffff"
     bordercolor="#666666"
     borderopacity="1"
     objecttolerance="10"
     gridtolerance="10"
     guidetolerance="10"
     inkscape:pageopacity="1"
     inkscape:pageshadow="2"
     inkscape:window-width="1920"
     inkscape:window-height="1027"
     id="namedview76"
     showgrid="false"
     inkscape:snap-global="false"
     inkscape:zoom="0.82311649"
     inkscape:cx="647.67564"
     inkscape:cy="279.31681"
     inkscape:window-x="-8"
     inkscape:window-y="-8"
     inkscape:window-maximized="1"
     inkscape:current-layer="layer2" />
  <desc
     id="desc4">UV-Map from Object: Cube. Exported from Blender3D with UV Exportscript</desc>
  <g
     inkscape:groupmode="layer"
     id="layer1"
     inkscape:label="UV"
     sodipodi:insensitive="true">
    <g
       style="fill:none;stroke:#000000;stroke-width:1px"
       id="g8"
       transform="translate(0,-512)">
      <polygon
         points="915.967,944.048 915.967,947.486 915.967,947.486 915.967,944.048 "
         id="polygon10" />
      <polygon
         points="812.824,944.048 812.824,947.486 812.824,947.486 812.824,944.048 "
         id="polygon12" />
      <polygon
         points="812.824,944.048 812.824,947.486 915.967,947.486 915.967,944.048 "
         id="polygon14" />
      <polygon
         points="812.824,944.048 812.824,944.048 915.967,944.048 915.967,944.048 "
         id="polygon16" />
      <polygon
         points="812.824,947.486 915.967,947.486 915.967,947.486 812.824,947.486 "
         id="polygon18" />
      <polygon
         points="713.238,832.577 1018.575,832.577 1018.575,548.93 713.238,548.93 "
         id="polygon20" />
      <polygon
         points="713.238,832.577 1018.575,832.577 1018.575,548.93 713.238,548.93 "
         id="polygon22" />
      <polygon
         points="1018.575,832.577 1018.575,548.93 1018.575,548.93 1018.575,832.577 "
         id="polygon24" />
      <polygon
         points="713.238,548.93 713.238,832.577 713.238,832.577 713.238,548.93 "
         id="polygon26" />
      <polygon
         points="184.78,860.159 350.955,860.159 350.955,860.159 184.78,860.159 "
         id="polygon28" />
      <polygon
         points="350.955,860.159 517.13,860.159 517.13,860.159 350.955,860.159 "
         id="polygon30" />
      <polygon
         points="713.238,832.577 1018.576,832.577 1018.575,548.93 713.238,548.93 "
         id="polygon32" />
      <polygon
         points="713.238,832.577 1018.575,832.577 1018.575,548.93 713.238,548.93 "
         id="polygon34" />
      <polygon
         points="18.605,860.159 7.145,860.159 7.145,1014.529 18.605,1014.529 "
         id="polygon36" />
      <polygon
         points="694.766,860.159 683.305,860.159 683.306,1014.529 694.766,1014.529 "
         id="polygon38" />
      <polygon
         points="709.681,842.624 709.681,1014.529 1019.11,1014.529 1019.11,842.624 "
         id="polygon40" />
      <polygon
         points="1019.11,842.624 1019.11,1014.529 709.681,1014.529 709.681,842.624 "
         id="polygon42" />
      <polygon
         points="7.145,1014.529 7.145,842.624 694.766,842.624 694.766,1014.529 "
         id="polygon44" />
      <polygon
         points="14.026,842.624 687.885,842.624 694.766,842.624 7.145,842.624 "
         id="polygon46" />
      <polygon
         points="716.556,842.624 1012.236,842.624 1019.11,842.624 709.681,842.624 "
         id="polygon48" />
      <polygon
         points="687.884,842.624 14.026,842.624 7.145,842.624 694.766,842.624 "
         id="polygon50" />
      <polygon
         points="1012.236,842.624 716.556,842.624 709.681,842.624 1019.11,842.624 "
         id="polygon52" />
      <polygon
         points="1012.236,849.5 716.556,849.5 716.556,842.624 1012.236,842.624 "
         id="polygon54" />
      <polygon
         points="687.884,849.5 14.026,849.5 14.026,842.624 687.884,842.624 "
         id="polygon56" />
      <polygon
         points="716.556,849.5 1012.236,849.5 1012.236,842.624 716.556,842.624 "
         id="polygon58" />
      <polygon
         points="14.026,849.5 687.885,849.5 687.885,842.624 14.026,842.624 "
         id="polygon60" />
      <polygon
         points="7.145,832.577 704.834,832.577 704.834,526.441 7.145,526.441 "
         id="polygon62" />
      <polygon
         points="18.605,842.624 7.145,842.624 7.145,860.159 18.605,860.159 "
         id="polygon64" />
      <polygon
         points="683.305,842.624 18.605,842.624 18.605,860.159 683.305,860.159 "
         id="polygon66" />
      <polygon
         points="694.766,842.624 683.305,842.624 683.305,860.159 694.766,860.159 "
         id="polygon68" />
      <polygon
         points="18.605,1014.529 18.605,860.159 18.605,860.159 18.605,1014.529 "
         id="polygon70" />
      <polygon
         points="683.306,1014.529 683.305,860.159 683.305,860.159 683.306,1014.529 "
         id="polygon72" />
      <polygon
         points="683.305,860.159 18.605,860.159 18.605,860.159 683.305,860.159 "
         id="polygon74" />
    </g>
  </g>
  <g
     inkscape:groupmode="layer"
     id="layer2"
     inkscape:label="Texture"
     style="opacity:1"
     sodipodi:insensitive="true">
    <rect
       style="fill:#999999;fill-opacity:1;stroke:none"
       id="rect3176"
       width="1024"
       height="512"
       x="0"
       y="0" />
    <rect
       style="fill:#4d4d4d;fill-opacity:1;stroke:none"
       id="rect3178"
       width="705.02618"
       height="316.45639"
       x="3.6510067"
       y="7.0872478" />
    <rect
       style="fill:#666666;fill-opacity:1;stroke:#333333;stroke-width:1.9705708;stroke-miterlimit:4;stroke-dasharray:none"
       id="rect3180"
       width="30.029428"
       height="62.02943"
       x="831.97351"
       y="440.12506" />
    <rect
       style="fill:#4d4d4d;fill-opacity:1;stroke:#1a1a1a;stroke-width:1.94596648;stroke-miterlimit:4;stroke-dasharray:none"
       id="rect3182"
       width="88.054039"
       height="34.054035"
       x="907.42499"
       y="368.27716" />
    <rect
       style="fill:#cccccc;fill-opacity:1;stroke:#b3b3b3;stroke-width:1.99184775;stroke-miterlimit:4;stroke-dasharray:none"
       id="rect3184"
       width="308.56247"
       height="286.37262"
       x="711.95453"
       y="35.586086" />
    <rect
       y="440.12506"
       x="863.97351"
       height="62.02943"
       width="30.029428"
       id="rect3954"
       style="fill:#666666;fill-opacity:1;stroke:#333333;stroke-width:1.9705708;stroke-miterlimit:4;stroke-dasharray:none" />
    <g
       id="g3960"
       style="fill:#333333">
      <ellipse
         id="path3956"
         style="fill:#333333;fill-opacity:1;stroke:none;stroke-width:2;stroke-linecap:butt;stroke-linejoin:miter;stroke-miterlimit:4;stroke-dasharray:none;stroke-dashoffset:5;stroke-opacity:1"
         cx="856.75171"
         cy="472.26846"
         rx="0.91275167"
         ry="1.2885906" />
      <rect
         y="471.73154"
         x="852.4295"
         height="1.261745"
         width="4.1879196"
         id="rect3958"
         style="fill:#333333;fill-opacity:1;stroke:none" />
    </g>
    <g
       id="g3964"
       transform="matrix(-1,0,0,1,1726.094,0)">
      <ellipse
         style="fill:#333333;fill-opacity:1;stroke:none"
         id="path3966"
         cx="856.75171"
         cy="472.26846"
         rx="0.91275167"
         ry="1.2885906" />
      <rect
         style="fill:#333333;fill-opacity:1;stroke:none"
         id="rect3968"
         width="4.1879196"
         height="1.261745"
         x="852.4295"
         y="471.73154" />
    </g>
    <rect
       style="fill:url(#linearGradient3978);fill-opacity:1;stroke:none"
       id="rect3970"
       width="4"
       height="284.741"
       x="720.43268"
       y="36.520519" />
    <rect
       y="36.520519"
       x="740.43268"
       height="284.741"
       width="4"
       id="rect3984"
       style="fill:url(#linearGradient3986);fill-opacity:1;stroke:none" />
    <rect
       style="fill:url(#linearGradient3990);fill-opacity:1;stroke:none"
       id="rect3988"
       width="4"
       height="284.741"
       x="760.43268"
       y="36.520519" />
    <rect
       y="36.520519"
       x="780.43268"
       height="284.741"
       width="4"
       id="rect3992"
       style="fill:url(#linearGradient3994);fill-opacity:1;stroke:none" />
    <rect
       style="fill:url(#linearGradient3998);fill-opacity:1;stroke:none"
       id="rect3996"
       width="4"
       height="284.741"
       x="800.43268"
       y="36.520519" />
    <rect
       y="36.520519"
       x="820.43268"
       height="284.741"
       width="4"
       id="rect4000"
       style="fill:url(#linearGradient4002);fill-opacity:1;stroke:none" />
    <rect
       style="fill:url(#linearGradient4006);fill-opacity:1;stroke:none"
       id="rect4004"
       width="4"
       height="284.741"
       x="840.43268"
       y="36.520519" />
    <rect
       y="36.520519"
       x="860.43268"
       height="284.741"
       width="4"
       id="rect4008"
       style="fill:url(#linearGradient4010);fill-opacity:1;stroke:none" />
    <rect
       style="fill:url(#linearGradient4014);fill-opacity:1;stroke:none"
       id="rect4012"
       width="4"
       height="284.741"
       x="880.43268"
       y="36.520519" />
    <rect
       y="36.520519"
       x="900.43268"
       height="284.741"
       width="4"
       id="rect4016"
       style="fill:url(#linearGradient4018);fill-opacity:1;stroke:none" />
    <rect
       style="fill:url(#linearGradient4022);fill-opacity:1;stroke:none"
       id="rect4020"
       width="4"
       height="284.741"
       x="920.43268"
       y="36.520519" />
    <rect
       y="36.520519"
       x="940.43268"
       height="284.741"
       width="4"
       id="rect4024"
       style="fill:url(#linearGradient4026);fill-opacity:1;stroke:none" />
    <rect
       style="fill:url(#linearGradient4030);fill-opacity:1;stroke:none"
       id="rect4028"
       width="4"
       height="284.741"
       x="960.43268"
       y="36.520519" />
    <rect
       y="36.520519"
       x="980.43268"
       height="284.741"
       width="4"
       id="rect4032"
       style="fill:url(#linearGradient4034);fill-opacity:1;stroke:none" />
    <rect
       style="fill:url(#linearGradient4038);fill-opacity:1;stroke:none"
       id="rect4036"
       width="4"
       height="284.741"
       x="1000.4327"
       y="36.520519" />
  </g>
</svg>
